<svg width="167" height="170" viewBox="0 0 167 170" fill="none" xmlns="http://www.w3.org/2000/svg">
<path fill-rule="evenodd" clip-rule="evenodd" d="M75.3541 0.643921C73.1611 0.793782 70.8459 1.14449 68.6654 1.73408L69.3726 4.34925C71.3569 3.81268 73.4943 3.48642 75.5388 3.34671L75.3541 0.643921ZM67.3478 2.12579C64.8443 2.94123 62.4883 4.13945 60.8522 5.85293C59.166 7.61891 58.2771 9.90946 58.7644 12.6729L61.4324 12.2024C61.1095 10.372 61.6589 8.93104 62.8116 7.72378C64.0144 6.46401 65.898 5.44721 68.1868 4.70168L67.3478 2.12579ZM59.1344 14.1202C59.7524 15.9791 60.9479 17.9711 62.7741 20.1125C64.105 21.6732 65.3528 22.9878 66.5205 24.0844C62.9839 27.0929 60.2777 30.6383 59.8425 34.1795L62.5314 34.51C62.852 31.9011 65.0557 28.8109 68.5983 25.8773C71.7636 28.3545 74.4584 29.2363 76.6162 28.7192C78.9554 28.1587 80.0669 26.1245 80.2682 24.2666L77.5749 23.9748C77.4541 25.0893 76.8685 25.873 75.9849 26.0847C75.0953 26.2979 73.4338 26.0698 70.8352 24.1732C72.1108 23.2767 73.4807 22.4298 74.908 21.655C75.9111 21.1928 76.4573 21.3628 76.7466 21.5538C77.1091 21.7933 77.4431 22.3153 77.557 23.0748L80.2361 22.6728C80.0455 21.4025 79.4267 20.0773 78.2396 19.2933C76.9824 18.4629 75.3908 18.4347 73.7226 19.2185L73.6876 19.235L73.6535 19.2535C71.901 20.2028 70.2216 21.2587 68.6753 22.3881C67.5115 21.3219 66.2324 19.9928 64.8354 18.3546C63.1558 16.3851 62.18 14.6938 61.7052 13.2656L59.1344 14.1202ZM68.6318 25.1269L67.8061 24.0989L68.6526 23.1454L69.414 24.1621L68.6318 25.1269ZM59.798 35.6631C60.0594 39.6022 63.3074 42.6457 69.4416 44.4945L70.2233 41.9007C64.4628 40.1645 62.6485 37.7052 62.5012 35.4838L59.798 35.6631ZM70.6894 44.8443C72.5048 45.3172 74.5736 45.708 76.9144 46.0071L77.2578 43.3199C75.0097 43.0326 73.0566 42.6615 71.3723 42.2227L70.6894 44.8443ZM13.2543 5.26576H0.433228V33H15.5073C16.7233 33 17.8498 32.8033 18.8869 32.4099C19.924 31.9807 20.8181 31.4085 21.5691 30.6932C22.3202 29.978 22.8924 29.1197 23.2858 28.1183C23.7149 27.1169 23.9295 26.0262 23.9295 24.846C23.9295 22.9863 23.4467 21.4664 22.4811 20.2862C21.5513 19.106 20.2817 18.355 18.6723 18.0331V17.9795C19.9598 17.3715 20.9612 16.6026 21.6764 15.6728C22.3917 14.743 22.7493 13.527 22.7493 12.025C22.7493 10.6302 22.4811 9.48579 21.9447 8.59172C21.4082 7.69764 20.693 7.01815 19.7989 6.55323C18.9048 6.05255 17.8856 5.7128 16.7411 5.53398C15.6325 5.35517 14.4702 5.26576 13.2543 5.26576ZM18.0286 27.8501C17.2776 28.7084 16.1511 29.1376 14.649 29.1376H4.93936V20.3935H13.8443C15.7755 20.3935 17.1524 20.769 17.975 21.52C18.7975 22.2711 19.2088 23.2724 19.2088 24.5241C19.2088 25.8474 18.8154 26.956 18.0286 27.8501ZM16.8484 15.5655C16.0974 16.2808 14.7384 16.6384 12.7715 16.6384H4.93936V9.12816H12.7715C14.7742 9.12816 16.1511 9.45003 16.9021 10.0938C17.6531 10.7017 18.0286 11.5779 18.0286 12.7223C18.0286 13.9025 17.6352 14.8502 16.8484 15.5655ZM35.2506 32.5708C36.8957 33.2503 38.7732 33.59 40.8833 33.59C44.4595 33.59 47.2669 32.6781 49.3054 30.8542C51.3439 28.9945 52.6135 26.3302 53.1142 22.8611H48.4471C48.161 25.0069 47.3742 26.6699 46.0868 27.8501C44.8351 29.0303 43.0827 29.6204 40.8296 29.6204C39.3633 29.6204 38.1116 29.3342 37.0745 28.762C36.0731 28.1898 35.2506 27.4388 34.6069 26.509C33.9631 25.5434 33.4803 24.4526 33.1584 23.2367C32.8723 22.0207 32.7293 20.769 32.7293 19.4815C32.7293 18.0868 32.8723 16.7457 33.1584 15.4582C33.4446 14.135 33.9095 12.9727 34.5532 11.9713C35.2327 10.97 36.1268 10.1653 37.2354 9.55732C38.3441 8.94935 39.721 8.64536 41.3661 8.64536C43.2973 8.64536 44.8351 9.12816 45.9795 10.0938C47.1239 11.0594 47.8749 12.4184 48.2325 14.1707H52.9533C52.7744 12.5256 52.3453 11.113 51.6658 9.93283C50.9863 8.71689 50.1101 7.71553 49.0372 6.92874C48.0001 6.14196 46.7841 5.56975 45.3894 5.21212C44.0304 4.81872 42.5641 4.62203 40.9905 4.62203C38.7732 4.62203 36.842 5.01542 35.1969 5.80221C33.5876 6.55323 32.2286 7.60824 31.12 8.96723C30.0471 10.2905 29.2424 11.864 28.706 13.6879C28.1695 15.4761 27.9013 17.4073 27.9013 19.4815C27.9013 21.5916 28.1695 23.5049 28.706 25.2215C29.2782 26.9381 30.1007 28.4223 31.1736 29.674C32.2823 30.9257 33.6412 31.8913 35.2506 32.5708ZM107.174 5.26576H88.1843V33H92.744V9.2891H107.174V5.26576ZM110.813 28.9766H107.541V41.4221H111.886V33H133.773V41.4221H138.118V28.9766H134.363V5.26576H114.3V11.2203C114.3 12.9369 114.193 14.6893 113.978 16.4775C113.763 18.2656 113.477 19.9643 113.12 21.5737C112.798 23.1473 112.422 24.5957 111.993 25.9189C111.6 27.2064 111.206 28.2256 110.813 28.9766ZM129.803 9.2891V28.9766H115.534C115.891 28.2256 116.249 27.2242 116.607 25.9725C117 24.7208 117.358 23.3261 117.679 21.7883C118.001 20.2505 118.252 18.6232 118.431 16.9066C118.645 15.1542 118.752 13.4018 118.752 11.6495V9.2891H129.803ZM146.533 33.1609C147.642 33.447 148.822 33.59 150.074 33.59C152.005 33.59 153.793 33.2682 155.438 32.6244C157.119 31.9449 158.585 30.8542 159.837 29.3521C159.837 30.8542 160.177 31.9449 160.856 32.6244C161.571 33.2682 162.519 33.59 163.699 33.59C165.094 33.59 166.185 33.3576 166.972 32.8927V29.3521C166.364 29.5309 165.899 29.6204 165.577 29.6204C164.862 29.6204 164.432 29.37 164.289 28.8693C164.182 28.3686 164.128 27.5819 164.128 26.509V12.2395C164.128 10.6302 163.824 9.32486 163.217 8.3235C162.609 7.32213 161.804 6.55323 160.803 6.01678C159.801 5.44458 158.675 5.06906 157.423 4.89025C156.207 4.71143 154.973 4.62203 153.721 4.62203C152.148 4.62203 150.664 4.78296 149.269 5.10483C147.91 5.42669 146.694 5.96314 145.621 6.71416C144.548 7.42942 143.69 8.37714 143.046 9.55732C142.402 10.7375 142.045 12.1859 141.973 13.9025H146.533C146.64 11.864 147.338 10.4872 148.625 9.7719C149.913 9.02087 151.522 8.64536 153.453 8.64536C154.168 8.64536 154.884 8.69901 155.599 8.8063C156.35 8.91359 157.012 9.12816 157.584 9.45003C158.192 9.7719 158.675 10.2368 159.032 10.8448C159.426 11.4528 159.622 12.2574 159.622 13.2588C159.622 14.1171 159.372 14.7787 158.871 15.2436C158.371 15.6728 157.691 16.0125 156.833 16.2629C155.975 16.4775 154.973 16.6563 153.829 16.7993C152.72 16.9066 151.54 17.0854 150.288 17.3358C149.108 17.5503 147.946 17.8186 146.801 18.1404C145.693 18.4623 144.691 18.9451 143.797 19.5888C142.939 20.1968 142.242 21.0015 141.705 22.0028C141.169 23.0042 140.9 24.2917 140.9 25.8652C140.9 27.26 141.133 28.4581 141.598 29.4594C142.098 30.425 142.76 31.2297 143.583 31.8734C144.441 32.4814 145.424 32.9105 146.533 33.1609ZM154.955 29.0303C153.882 29.4237 152.595 29.6204 151.093 29.6204C150.378 29.6204 149.698 29.5488 149.054 29.4058C148.411 29.2627 147.838 29.0303 147.338 28.7084C146.873 28.3865 146.479 27.9753 146.158 27.4746C145.871 26.9381 145.728 26.2944 145.728 25.5434C145.728 24.399 145.979 23.5049 146.479 22.8611C147.016 22.1817 147.695 21.6631 148.518 21.3055C149.34 20.9478 150.27 20.6975 151.307 20.5544C152.345 20.4114 153.364 20.2683 154.365 20.1253C155.402 19.9822 156.386 19.8213 157.316 19.6425C158.245 19.4637 158.996 19.1418 159.569 18.6769V23.3439C159.569 23.9877 159.408 24.6851 159.086 25.4361C158.764 26.1513 158.263 26.8308 157.584 27.4746C156.904 28.0825 156.028 28.6011 154.955 29.0303ZM13.2543 69.2658H0.433228V97H15.5073C16.7233 97 17.8498 96.8033 18.8869 96.4099C19.924 95.9807 20.8181 95.4085 21.5691 94.6932C22.3202 93.978 22.8924 93.1197 23.2858 92.1183C23.7149 91.1169 23.9295 90.0262 23.9295 88.846C23.9295 86.9863 23.4467 85.4664 22.4811 84.2862C21.5513 83.106 20.2817 82.355 18.6723 82.0331V81.9795C19.9598 81.3715 20.9612 80.6026 21.6764 79.6728C22.3917 78.7429 22.7493 77.527 22.7493 76.025C22.7493 74.6302 22.4811 73.4858 21.9447 72.5917C21.4082 71.6976 20.693 71.0181 19.7989 70.5532C18.9048 70.0525 17.8856 69.7128 16.7411 69.534C15.6325 69.3552 14.4702 69.2658 13.2543 69.2658ZM18.0286 91.8501C17.2776 92.7084 16.1511 93.1375 14.649 93.1375H4.93936V84.3935H13.8443C15.7755 84.3935 17.1524 84.769 17.975 85.52C18.7975 86.2711 19.2088 87.2724 19.2088 88.5241C19.2088 89.8474 18.8154 90.956 18.0286 91.8501ZM16.8484 79.5655C16.0974 80.2808 14.7384 80.6384 12.7715 80.6384H4.93936V73.1282H12.7715C14.7742 73.1282 16.1511 73.45 16.9021 74.0938C17.6531 74.7017 18.0286 75.5779 18.0286 76.7223C18.0286 77.9025 17.6352 78.8502 16.8484 79.5655ZM35.2506 96.5708C36.8957 97.2503 38.7732 97.59 40.8833 97.59C44.4595 97.59 47.2669 96.6781 49.3054 94.8542C51.3439 92.9945 52.6135 90.3302 53.1142 86.8612H48.4471C48.161 89.0069 47.3742 90.6699 46.0868 91.8501C44.8351 93.0303 43.0827 93.6204 40.8296 93.6204C39.3633 93.6204 38.1116 93.3342 37.0745 92.762C36.0731 92.1898 35.2506 91.4388 34.6069 90.509C33.9631 89.5434 33.4803 88.4526 33.1584 87.2367C32.8723 86.0207 32.7293 84.769 32.7293 83.4816C32.7293 82.0868 32.8723 80.7457 33.1584 79.4582C33.4446 78.135 33.9095 76.9727 34.5532 75.9713C35.2327 74.97 36.1268 74.1653 37.2354 73.5573C38.3441 72.9493 39.721 72.6454 41.3661 72.6454C43.2973 72.6454 44.8351 73.1282 45.9795 74.0938C47.1239 75.0594 47.8749 76.4184 48.2325 78.1707H52.9533C52.7744 76.5256 52.3453 75.113 51.6658 73.9328C50.9863 72.7169 50.1101 71.7155 49.0372 70.9287C48.0001 70.142 46.7841 69.5697 45.3894 69.2121C44.0304 68.8187 42.5641 68.622 40.9905 68.622C38.7732 68.622 36.842 69.0154 35.1969 69.8022C33.5876 70.5532 32.2286 71.6082 31.12 72.9672C30.0471 74.2905 29.2424 75.864 28.706 77.6879C28.1695 79.4761 27.9013 81.4073 27.9013 83.4816C27.9013 85.5916 28.1695 87.5049 28.706 89.2215C29.2782 90.9381 30.1007 92.4223 31.1736 93.674C32.2823 94.9257 33.6412 95.8913 35.2506 96.5708ZM107.174 69.2658H88.1843V97H92.744V73.2891H107.174V69.2658ZM110.813 92.9766H107.541V105.422H111.886V97H133.773V105.422H138.118V92.9766H134.363V69.2658H114.3V75.2203C114.3 76.9369 114.193 78.6893 113.978 80.4775C113.763 82.2656 113.477 83.9643 113.12 85.5737C112.798 87.1473 112.422 88.5957 111.993 89.9189C111.6 91.2064 111.206 92.2256 110.813 92.9766ZM129.803 73.2891V92.9766H115.534C115.891 92.2256 116.249 91.2242 116.607 89.9725C117 88.7208 117.358 87.3261 117.679 85.7883C118.001 84.2504 118.252 82.6232 118.431 80.9066C118.645 79.1542 118.752 77.4018 118.752 75.6495V73.2891H129.803ZM146.533 97.1609C147.642 97.447 148.822 97.59 150.074 97.59C152.005 97.59 153.793 97.2682 155.438 96.6244C157.119 95.9449 158.585 94.8542 159.837 93.3521C159.837 94.8542 160.177 95.9449 160.856 96.6244C161.571 97.2682 162.519 97.59 163.699 97.59C165.094 97.59 166.185 97.3576 166.972 96.8927V93.3521C166.364 93.5309 165.899 93.6204 165.577 93.6204C164.862 93.6204 164.432 93.37 164.289 92.8693C164.182 92.3686 164.128 91.5819 164.128 90.509V76.2395C164.128 74.6302 163.824 73.3249 163.217 72.3235C162.609 71.3221 161.804 70.5532 160.803 70.0168C159.801 69.4446 158.675 69.0691 157.423 68.8902C156.207 68.7114 154.973 68.622 153.721 68.622C152.148 68.622 150.664 68.783 149.269 69.1048C147.91 69.4267 146.694 69.9631 145.621 70.7142C144.548 71.4294 143.69 72.3771 143.046 73.5573C142.402 74.7375 142.045 76.1859 141.973 77.9025H146.533C146.64 75.864 147.338 74.4872 148.625 73.7719C149.913 73.0209 151.522 72.6454 153.453 72.6454C154.168 72.6454 154.884 72.699 155.599 72.8063C156.35 72.9136 157.012 73.1282 157.584 73.45C158.192 73.7719 158.675 74.2368 159.032 74.8448C159.426 75.4528 159.622 76.2574 159.622 77.2588C159.622 78.1171 159.372 78.7787 158.871 79.2436C158.371 79.6728 157.691 80.0125 156.833 80.2629C155.975 80.4775 154.973 80.6563 153.829 80.7993C152.72 80.9066 151.54 81.0854 150.288 81.3358C149.108 81.5503 147.946 81.8186 146.801 82.1404C145.693 82.4623 144.691 82.9451 143.797 83.5888C142.939 84.1968 142.242 85.0015 141.705 86.0028C141.169 87.0042 140.9 88.2917 140.9 89.8652C140.9 91.26 141.133 92.4581 141.598 93.4594C142.098 94.425 142.76 95.2297 143.583 95.8734C144.441 96.4814 145.424 96.9105 146.533 97.1609ZM154.955 93.0303C153.882 93.4237 152.595 93.6204 151.093 93.6204C150.378 93.6204 149.698 93.5488 149.054 93.4058C148.411 93.2627 147.838 93.0303 147.338 92.7084C146.873 92.3865 146.479 91.9753 146.158 91.4746C145.871 90.9381 145.728 90.2944 145.728 89.5434C145.728 88.399 145.979 87.5049 146.479 86.8612C147.016 86.1817 147.695 85.6631 148.518 85.3055C149.34 84.9478 150.27 84.6975 151.307 84.5544C152.345 84.4114 153.364 84.2683 154.365 84.1253C155.402 83.9822 156.386 83.8213 157.316 83.6425C158.245 83.4637 158.996 83.1418 159.569 82.6769V87.3439C159.569 87.9877 159.408 88.6851 159.086 89.4361C158.764 90.1513 158.263 90.8308 157.584 91.4746C156.904 92.0825 156.028 92.6011 154.955 93.0303ZM13.2543 133.266H0.433228V161H15.5073C16.7233 161 17.8498 160.803 18.8869 160.41C19.924 159.981 20.8181 159.409 21.5691 158.693C22.3202 157.978 22.8924 157.12 23.2858 156.118C23.7149 155.117 23.9295 154.026 23.9295 152.846C23.9295 150.986 23.4467 149.466 22.4811 148.286C21.5513 147.106 20.2817 146.355 18.6723 146.033V145.98C19.9598 145.372 20.9612 144.603 21.6764 143.673C22.3917 142.743 22.7493 141.527 22.7493 140.025C22.7493 138.63 22.4811 137.486 21.9447 136.592C21.4082 135.698 20.693 135.018 19.7989 134.553C18.9048 134.053 17.8856 133.713 16.7411 133.534C15.6325 133.355 14.4702 133.266 13.2543 133.266ZM18.0286 155.85C17.2776 156.708 16.1511 157.138 14.649 157.138H4.93936V148.394H13.8443C15.7755 148.394 17.1524 148.769 17.975 149.52C18.7975 150.271 19.2088 151.272 19.2088 152.524C19.2088 153.847 18.8154 154.956 18.0286 155.85ZM16.8484 143.566C16.0974 144.281 14.7384 144.638 12.7715 144.638H4.93936V137.128H12.7715C14.7742 137.128 16.1511 137.45 16.9021 138.094C17.6531 138.702 18.0286 139.578 18.0286 140.722C18.0286 141.903 17.6352 142.85 16.8484 143.566ZM35.2506 160.571C36.8957 161.25 38.7732 161.59 40.8833 161.59C44.4595 161.59 47.2669 160.678 49.3054 158.854C51.3439 156.995 52.6135 154.33 53.1142 150.861H48.4471C48.161 153.007 47.3742 154.67 46.0868 155.85C44.8351 157.03 43.0827 157.62 40.8296 157.62C39.3633 157.62 38.1116 157.334 37.0745 156.762C36.0731 156.19 35.2506 155.439 34.6069 154.509C33.9631 153.543 33.4803 152.453 33.1584 151.237C32.8723 150.021 32.7293 148.769 32.7293 147.482C32.7293 146.087 32.8723 144.746 33.1584 143.458C33.4446 142.135 33.9095 140.973 34.5532 139.971C35.2327 138.97 36.1268 138.165 37.2354 137.557C38.3441 136.949 39.721 136.645 41.3661 136.645C43.2973 136.645 44.8351 137.128 45.9795 138.094C47.1239 139.059 47.8749 140.418 48.2325 142.171H52.9533C52.7744 140.526 52.3453 139.113 51.6658 137.933C50.9863 136.717 50.1101 135.716 49.0372 134.929C48.0001 134.142 46.7841 133.57 45.3894 133.212C44.0304 132.819 42.5641 132.622 40.9905 132.622C38.7732 132.622 36.842 133.015 35.1969 133.802C33.5876 134.553 32.2286 135.608 31.12 136.967C30.0471 138.29 29.2424 139.864 28.706 141.688C28.1695 143.476 27.9013 145.407 27.9013 147.482C27.9013 149.592 28.1695 151.505 28.706 153.222C29.2782 154.938 30.1007 156.422 31.1736 157.674C32.2823 158.926 33.6412 159.891 35.2506 160.571ZM107.174 133.266H88.1843V161H92.744V137.289H107.174V133.266ZM110.813 156.977H107.541V169.422H111.886V161H133.773V169.422H138.118V156.977H134.363V133.266H114.3V139.22C114.3 140.937 114.193 142.689 113.978 144.477C113.763 146.266 113.477 147.964 113.12 149.574C112.798 151.147 112.422 152.596 111.993 153.919C111.6 155.206 111.206 156.226 110.813 156.977ZM129.803 137.289V156.977H115.534C115.891 156.226 116.249 155.224 116.607 153.973C117 152.721 117.358 151.326 117.679 149.788C118.001 148.25 118.252 146.623 118.431 144.907C118.645 143.154 118.752 141.402 118.752 139.649V137.289H129.803ZM146.533 161.161C147.642 161.447 148.822 161.59 150.074 161.59C152.005 161.59 153.793 161.268 155.438 160.624C157.119 159.945 158.585 158.854 159.837 157.352C159.837 158.854 160.177 159.945 160.856 160.624C161.571 161.268 162.519 161.59 163.699 161.59C165.094 161.59 166.185 161.358 166.972 160.893V157.352C166.364 157.531 165.899 157.62 165.577 157.62C164.862 157.62 164.432 157.37 164.289 156.869C164.182 156.369 164.128 155.582 164.128 154.509V140.24C164.128 138.63 163.824 137.325 163.217 136.323C162.609 135.322 161.804 134.553 160.803 134.017C159.801 133.445 158.675 133.069 157.423 132.89C156.207 132.711 154.973 132.622 153.721 132.622C152.148 132.622 150.664 132.783 149.269 133.105C147.91 133.427 146.694 133.963 145.621 134.714C144.548 135.429 143.69 136.377 143.046 137.557C142.402 138.738 142.045 140.186 141.973 141.903H146.533C146.64 139.864 147.338 138.487 148.625 137.772C149.913 137.021 151.522 136.645 153.453 136.645C154.168 136.645 154.884 136.699 155.599 136.806C156.35 136.914 157.012 137.128 157.584 137.45C158.192 137.772 158.675 138.237 159.032 138.845C159.426 139.453 159.622 140.257 159.622 141.259C159.622 142.117 159.372 142.779 158.871 143.244C158.371 143.673 157.691 144.013 156.833 144.263C155.975 144.477 154.973 144.656 153.829 144.799C152.72 144.907 151.54 145.085 150.288 145.336C149.108 145.55 147.946 145.819 146.801 146.14C145.693 146.462 144.691 146.945 143.797 147.589C142.939 148.197 142.242 149.001 141.705 150.003C141.169 151.004 140.9 152.292 140.9 153.865C140.9 155.26 141.133 156.458 141.598 157.459C142.098 158.425 142.76 159.23 143.583 159.873C144.441 160.481 145.424 160.911 146.533 161.161ZM154.955 157.03C153.882 157.424 152.595 157.62 151.093 157.62C150.378 157.62 149.698 157.549 149.054 157.406C148.411 157.263 147.838 157.03 147.338 156.708C146.873 156.387 146.479 155.975 146.158 155.475C145.871 154.938 145.728 154.294 145.728 153.543C145.728 152.399 145.979 151.505 146.479 150.861C147.016 150.182 147.695 149.663 148.518 149.305C149.34 148.948 150.27 148.697 151.307 148.554C152.345 148.411 153.364 148.268 154.365 148.125C155.402 147.982 156.386 147.821 157.316 147.642C158.245 147.464 158.996 147.142 159.569 146.677V151.344C159.569 151.988 159.408 152.685 159.086 153.436C158.764 154.151 158.263 154.831 157.584 155.475C156.904 156.083 156.028 156.601 154.955 157.03ZM75.5654 111.869C78.0508 111.382 79.9401 110.698 81.2951 109.819C82.7429 108.88 83.6319 107.677 83.8826 106.26L81.2149 105.788C81.1243 106.301 80.7939 106.915 79.8204 107.546C78.8187 108.196 77.2015 108.815 74.7163 109.272L74.7499 109.455C72.7522 109.626 70.6754 109.964 68.7084 110.495L69.4156 113.111C71.3999 112.574 73.5373 112.248 75.5818 112.108L75.5654 111.869ZM60.8952 114.614C62.5313 112.901 64.8873 111.703 67.3907 110.887L68.2298 113.463C65.941 114.209 64.0574 115.225 62.8546 116.485C61.7018 117.692 61.1525 119.133 61.4753 120.964L58.8074 121.434C58.32 118.671 59.209 116.38 60.8952 114.614ZM62.817 128.874C60.9909 126.732 59.7953 124.74 59.1774 122.882L61.7481 122.027C62.2229 123.455 63.1987 125.146 64.8783 127.116C66.2754 128.754 67.5545 130.083 68.7183 131.149C70.2646 130.02 71.9439 128.964 73.6965 128.015L73.7305 127.996L73.7656 127.98C75.4338 127.196 77.0253 127.224 78.2826 128.055C79.4697 128.839 80.0885 130.164 80.2791 131.434L77.6 131.836C77.486 131.077 77.1521 130.555 76.7896 130.315C76.5003 130.124 75.9541 129.954 74.9509 130.416C73.5237 131.191 72.1538 132.038 70.8781 132.935C73.4767 134.831 75.1383 135.059 76.0278 134.846C76.9115 134.634 77.4971 133.851 77.6178 132.736L80.3112 133.028C80.1099 134.886 78.9983 136.92 76.6591 137.481C74.5014 137.998 71.8066 137.116 68.6412 134.639C65.0987 137.572 62.895 140.662 62.5744 143.271L59.8855 142.941C60.3207 139.4 63.0269 135.854 66.5635 132.846C65.3958 131.749 64.148 130.435 62.817 128.874ZM67.8491 132.86L68.6747 133.888L69.457 132.923L68.6956 131.907L67.8491 132.86ZM69.4845 153.256C63.3503 151.407 60.1023 148.364 59.841 144.424L62.5442 144.245C62.6915 146.467 64.5057 148.926 70.2663 150.662L69.4845 153.256ZM76.9574 154.768C74.6166 154.469 72.5477 154.079 70.7324 153.606L71.4153 150.984C73.0996 151.423 75.0527 151.794 77.3008 152.081L76.9574 154.768ZM74.8615 61.2012C73.1236 61.3296 71.2817 61.6362 69.5537 62.1583L70.3372 64.7516C71.8463 64.2957 73.4887 64.0191 75.0611 63.9029L74.8615 61.2012ZM68.5111 62.5054C66.6077 63.2014 64.802 64.2254 63.5598 65.6971C62.2755 67.2189 61.6523 69.1573 62.0738 71.4512L64.7383 70.9616C64.4688 69.4953 64.848 68.3711 65.6301 67.4445C66.4544 66.4678 67.7793 65.6575 69.4414 65.0497L68.5111 62.5054ZM62.3665 72.6065C62.8513 74.1175 63.7569 75.728 65.1148 77.4491C66.0617 78.6493 66.9601 79.6812 67.8124 80.5589C67.6721 80.6899 67.5341 80.8219 67.3984 80.9545L69.292 82.8919C69.459 82.7286 69.6303 82.5663 69.8056 82.4051C70.9285 83.3218 71.9588 83.9409 72.9031 84.3044L73.8763 81.7761C73.3381 81.569 72.6946 81.2086 71.9435 80.6409C72.8251 79.9849 73.7649 79.3627 74.7422 78.7886C75.3854 78.4712 75.6313 78.6225 75.7125 78.679C75.8889 78.8015 76.1268 79.1368 76.2171 79.7274C76.3044 80.2991 76.2145 80.8971 75.9917 81.3288C75.7869 81.7255 75.505 81.9384 75.1159 81.9892L75.4667 84.6755C76.8862 84.4901 77.8612 83.613 78.3989 82.5715C78.9186 81.5648 79.0567 80.3762 78.8951 79.3182C78.7363 78.2791 78.2481 77.1419 77.2584 76.4542C76.175 75.7015 74.8222 75.7092 73.4819 76.39L73.4458 76.4083L73.4109 76.4288C72.1774 77.1511 70.9896 77.9493 69.8842 78.8025C69.0847 77.9902 68.2043 76.9912 67.2417 75.7712C66.0209 74.2238 65.3049 72.8973 64.946 71.7789L62.3665 72.6065ZM66.3387 82.0588C64.3396 84.2871 62.8838 86.8419 62.813 89.4058C62.738 92.1225 64.2178 94.479 67.2665 96.1542L68.5711 93.7799C66.1952 92.4744 65.4803 90.9567 65.5211 89.4806C65.5661 87.8517 66.5366 85.895 68.3552 83.8679L66.3387 82.0588ZM68.692 96.8413C70.5433 97.6249 72.8628 98.2344 75.6977 98.6459C76.808 99.4098 77.9781 100.357 78.9624 101.377C80.04 102.495 80.8009 103.603 81.1029 104.577L83.6904 103.774C83.2066 102.215 82.1144 100.743 80.9123 99.4966C79.6918 98.2313 78.2599 97.0977 76.9513 96.2227L76.6923 96.0495L76.3836 96.0069C73.5626 95.6173 71.3859 95.0397 69.7479 94.3465L68.692 96.8413Z" fill="white"/>
</svg>
