<svg width="505" height="377" viewBox="0 0 505 377" fill="none" xmlns="http://www.w3.org/2000/svg">
<mask id="path-1-inside-1_94_167" fill="white">
<path fill-rule="evenodd" clip-rule="evenodd" d="M504.829 0H0V256.974H12.4342V376.342H79.579V256.974H96.9869V376.342H164.132V256.974H262.776V376.342H329.921V256.974H349.816V376.342H416.961V256.974H437.684V376.342H504.829L504.829 256.974L504.829 254.487L504.829 0Z"/>
</mask>
<path fill-rule="evenodd" clip-rule="evenodd" d="M504.829 0H0V256.974H12.4342V376.342H79.579V256.974H96.9869V376.342H164.132V256.974H262.776V376.342H329.921V256.974H349.816V376.342H416.961V256.974H437.684V376.342H504.829L504.829 256.974L504.829 254.487L504.829 0Z" fill="white"/>
<path d="M0 0V-5.80263H-5.80263V0H0ZM504.829 0L510.632 -6.9584e-07V-5.80263H504.829V0ZM0 256.974H-5.80263V262.776H0V256.974ZM12.4342 256.974H18.2369V251.171H12.4342V256.974ZM12.4342 376.342H6.63162V382.145H12.4342V376.342ZM79.579 376.342V382.145H85.3816V376.342H79.579ZM79.579 256.974V251.171H73.7764V256.974H79.579ZM96.9869 256.974H102.79V251.171H96.9869V256.974ZM96.9869 376.342H91.1842V382.145H96.9869V376.342ZM164.132 376.342V382.145H169.934V376.342H164.132ZM164.132 256.974V251.171H158.329V256.974H164.132ZM262.776 256.974H268.579V251.171H262.776V256.974ZM262.776 376.342H256.974V382.145H262.776V376.342ZM329.921 376.342V382.145H335.724V376.342H329.921ZM329.921 256.974V251.171H324.118V256.974H329.921ZM349.816 256.974H355.618V251.171H349.816V256.974ZM349.816 376.342H344.013V382.145H349.816V376.342ZM416.961 376.342V382.145H422.763V376.342H416.961ZM416.961 256.974V251.171H411.158V256.974H416.961ZM437.684 256.974H443.487V251.171H437.684V256.974ZM437.684 376.342H431.882V382.145H437.684V376.342ZM504.829 376.342V382.145H510.632V376.342H504.829ZM504.829 256.974L499.026 256.974V256.974H504.829ZM504.829 254.487L510.632 254.487V254.487H504.829ZM0 5.80263H504.829V-5.80263H0V5.80263ZM5.80263 256.974V0H-5.80263V256.974H5.80263ZM12.4342 251.171H0V262.776H12.4342V251.171ZM18.2369 376.342V256.974H6.63162V376.342H18.2369ZM79.579 370.54H12.4342V382.145H79.579V370.54ZM73.7764 256.974V376.342H85.3816V256.974H73.7764ZM96.9869 251.171H79.579V262.776H96.9869V251.171ZM102.79 376.342V256.974H91.1842V376.342H102.79ZM164.132 370.54H96.9869V382.145H164.132V370.54ZM158.329 256.974V376.342H169.934V256.974H158.329ZM262.776 251.171H164.132V262.776H262.776V251.171ZM268.579 376.342V256.974H256.974V376.342H268.579ZM329.921 370.54H262.776V382.145H329.921V370.54ZM324.118 256.974V376.342H335.724V256.974H324.118ZM349.816 251.171H329.921V262.776H349.816V251.171ZM355.618 376.342V256.974H344.013V376.342H355.618ZM416.961 370.54H349.816V382.145H416.961V370.54ZM411.158 256.974V376.342H422.763V256.974H411.158ZM437.684 251.171H416.961V262.776H437.684V251.171ZM443.487 376.342V256.974H431.882V376.342H443.487ZM504.829 370.54H437.684V382.145H504.829V370.54ZM499.026 256.974L499.026 376.342H510.632L510.632 256.974H499.026ZM499.026 254.487L499.026 256.974L510.632 256.974L510.632 254.487L499.026 254.487ZM499.026 6.9584e-07L499.026 254.487H510.632L510.632 -6.9584e-07L499.026 6.9584e-07Z" fill="black" mask="url(#path-1-inside-1_94_167)"/>
</svg>
