<svg width="241" height="324" viewBox="0 0 241 324" fill="none" xmlns="http://www.w3.org/2000/svg">
<path fill-rule="evenodd" clip-rule="evenodd" d="M79.938 37.2952C90.6367 30.4467 101.832 26.0047 113.325 24.7257L110.575 0.00982666C94.5028 1.79843 79.707 7.9159 66.5306 16.3505L79.938 37.2952ZM127.193 24.7393C137.459 25.9078 148.533 29.7543 160.322 37.5041L173.983 16.7238C159.288 7.06363 144.544 1.68511 130.005 0.030406L127.193 24.7393ZM41.3936 74.5983C49.172 64.1997 58.0671 54.3951 67.7959 46.2533L51.8357 27.1821C40.3518 36.7927 30.1686 48.0871 21.48 59.7024L41.3936 74.5983ZM172.333 46.5937C180.868 53.9059 189.716 63.3126 198.786 75.2076L218.562 60.1288C208.611 47.0795 198.586 36.3382 188.511 27.7077L172.333 46.5937ZM22.6593 104.616C25.4943 99.0807 28.769 93.3298 32.4443 87.5593L11.469 74.1999C7.37243 80.6318 3.71166 87.0579 0.525283 93.279L22.6593 104.616ZM208.095 88.1948C211.68 93.5008 215.289 99.1954 218.916 105.299L240.295 92.5956C236.438 86.1048 232.572 80.0014 228.7 74.2708L208.095 88.1948ZM113.325 94.3573C101.832 95.6363 90.6367 100.078 79.938 106.927L66.5306 85.9821C79.707 77.5475 94.5028 71.43 110.575 69.6414L113.325 94.3573ZM160.322 107.136C148.533 99.3859 137.459 95.5393 127.193 94.3709L130.005 69.662C144.544 71.3167 159.288 76.6952 173.983 86.3554L160.322 107.136ZM67.7959 115.885C58.0671 124.027 49.172 133.831 41.3936 144.23L21.48 129.334C30.1686 117.719 40.3518 106.424 51.8357 96.8137L67.7959 115.885ZM198.786 144.839C189.716 132.944 180.868 123.538 172.333 116.225L188.511 97.3392C198.586 105.97 208.611 116.711 218.562 129.76L198.786 144.839ZM32.4443 157.191C28.769 162.961 25.4943 168.712 22.6593 174.247L0.525283 162.911C3.71166 156.69 7.37243 150.263 11.469 143.831L32.4443 157.191ZM218.916 174.931C215.289 168.827 211.68 163.132 208.095 157.826L228.7 143.902C232.572 149.633 236.438 155.736 240.295 162.227L218.916 174.931ZM79.938 174.9C90.6367 168.052 101.832 163.61 113.325 162.331L110.575 137.615C94.5028 139.404 79.707 145.521 66.5306 153.956L79.938 174.9ZM127.193 162.345C137.459 163.513 148.533 167.359 160.322 175.109L173.983 154.329C159.288 144.669 144.544 139.29 130.005 137.636L127.193 162.345ZM41.3936 212.204C49.172 201.805 58.0671 192 67.7959 183.858L51.8357 164.787C40.3518 174.398 30.1686 185.692 21.48 197.308L41.3936 212.204ZM172.333 184.199C180.868 191.511 189.716 200.918 198.786 212.813L218.562 197.734C208.611 184.685 198.586 173.943 188.511 165.313L172.333 184.199ZM22.6593 242.221C25.4943 236.686 28.769 230.935 32.4443 225.164L11.469 211.805C7.37243 218.237 3.71166 224.663 0.525283 230.884L22.6593 242.221ZM208.095 225.8C211.68 231.106 215.289 236.801 218.916 242.904L240.295 230.201C236.438 223.71 232.572 217.607 228.7 211.876L208.095 225.8ZM79.938 255.308C90.6367 248.46 101.832 244.018 113.325 242.739L110.575 218.023C94.5028 219.812 79.707 225.929 66.5306 234.364L79.938 255.308ZM127.193 242.752C137.459 243.921 148.533 247.767 160.322 255.517L173.983 234.737C159.288 225.077 144.544 219.698 130.005 218.044L127.193 242.752ZM41.3936 292.612C49.172 282.213 58.0671 272.408 67.7959 264.266L51.8357 245.195C40.3518 254.806 30.1686 266.1 21.48 277.716L41.3936 292.612ZM172.333 264.607C180.868 271.919 189.716 281.326 198.786 293.221L218.562 278.142C208.611 265.093 198.586 254.351 188.511 245.721L172.333 264.607ZM22.6593 322.629C25.4943 317.094 28.769 311.343 32.4443 305.572L11.469 292.213C7.37243 298.645 3.71166 305.071 0.525283 311.292L22.6593 322.629ZM208.095 306.208C211.68 311.514 215.289 317.209 218.916 323.312L240.295 310.609C236.438 304.118 232.572 298.015 228.7 292.284L208.095 306.208Z" fill="black"/>
</svg>
