<svg width="730" height="51" viewBox="0 0 730 51" fill="none" xmlns="http://www.w3.org/2000/svg">
<path fill-rule="evenodd" clip-rule="evenodd" d="M40.1014 1.64087H0.1654V49.6448H10.7209V10.5155H29.5459V49.6448H40.1014V1.64087ZM71.0567 1.64087H49.4078V49.6448H59.9633V32.4333H71.0567C74.0597 32.4333 76.6145 32.0075 78.7212 31.1559C80.8278 30.2594 82.531 29.0941 83.8308 27.6598C85.1755 26.2255 86.1391 24.5895 86.7218 22.7518C87.3493 20.9141 87.6631 19.0092 87.6631 17.0371C87.6631 15.1098 87.3493 13.2273 86.7218 11.3896C86.1391 9.50706 85.1755 7.84866 83.8308 6.41437C82.531 4.98008 80.8278 3.83713 78.7212 2.98552C76.6145 2.08909 74.0597 1.64087 71.0567 1.64087ZM71.6618 23.962C70.5412 24.1413 69.3759 24.2309 68.1657 24.2309H59.9633V9.84322H68.1657C69.3759 9.84322 70.5412 9.93287 71.6618 10.1122C72.7823 10.2914 73.7684 10.65 74.62 11.1879C75.4716 11.6809 76.1439 12.398 76.637 13.3393C77.1748 14.2806 77.4437 15.5131 77.4437 17.0371C77.4437 18.561 77.1748 19.7936 76.637 20.7349C76.1439 21.6761 75.4716 22.4157 74.62 22.9535C73.7684 23.4466 72.7823 23.7827 71.6618 23.962ZM105.815 48.838C108.729 50.093 112.045 50.7205 115.766 50.7205C119.441 50.7205 122.735 50.093 125.649 48.838C128.607 47.5382 131.095 45.7677 133.112 43.5266C135.129 41.2856 136.675 38.6635 137.751 35.6604C138.826 32.6126 139.364 29.3406 139.364 25.8445C139.364 22.3036 138.826 18.9868 137.751 15.8941C136.675 12.8014 135.129 10.1121 133.112 7.82625C131.095 5.54035 128.607 3.74749 125.649 2.44766C122.735 1.14784 119.441 0.497925 115.766 0.497925C112.045 0.497925 108.729 1.14784 105.815 2.44766C102.902 3.74749 100.437 5.54035 98.4197 7.82625C96.4027 10.1121 94.8564 12.8014 93.7807 15.8941C92.705 18.9868 92.1671 22.3036 92.1671 25.8445C92.1671 29.3406 92.705 32.6126 93.7807 35.6604C94.8564 38.6635 96.4027 41.2856 98.4197 43.5266C100.437 45.7677 102.902 47.5382 105.815 48.838ZM121.817 40.5684C120.158 41.4648 118.141 41.9131 115.766 41.9131C113.39 41.9131 111.373 41.4648 109.715 40.5684C108.056 39.6272 106.712 38.3946 105.681 36.8706C104.65 35.3467 103.888 33.6435 103.395 31.761C102.947 29.8336 102.723 27.8615 102.723 25.8445C102.723 23.7379 102.947 21.6985 103.395 19.7264C103.888 17.7542 104.65 16.0062 105.681 14.4823C106.712 12.9135 108.056 11.6809 109.715 10.7845C111.373 9.84322 113.39 9.37259 115.766 9.37259C118.141 9.37259 120.158 9.84322 121.817 10.7845C123.475 11.6809 124.82 12.9135 125.851 14.4823C126.881 16.0062 127.621 17.7542 128.069 19.7264C128.562 21.6985 128.809 23.7379 128.809 25.8445C128.809 27.8615 128.562 29.8336 128.069 31.761C127.621 33.6435 126.881 35.3467 125.851 36.8706C124.82 38.3946 123.475 39.6272 121.817 40.5684ZM142.747 49.3758C144.137 49.9137 145.661 50.1826 147.319 50.1826C151.039 50.1826 153.908 49.1741 155.925 47.1572C157.942 45.0954 159.421 42.294 160.362 38.7531C161.303 35.1674 161.886 30.9542 162.11 26.1135C162.379 21.2727 162.581 16.0734 162.715 10.5155H176.767V49.6448H187.255V1.64087H152.698V11.3223C152.698 16.6113 152.586 21.1383 152.362 24.9033C152.137 28.6683 151.712 31.7386 151.084 34.1141C150.501 36.4896 149.65 38.2377 148.529 39.3582C147.454 40.4788 146.064 41.039 144.361 41.039C144.137 41.039 143.845 41.0166 143.487 40.9718C143.173 40.927 142.927 40.8597 142.747 40.7701V49.3758ZM208.108 48.838C211.022 50.093 214.338 50.7205 218.059 50.7205C221.734 50.7205 225.028 50.093 227.942 48.838C230.9 47.5382 233.388 45.7677 235.405 43.5266C237.422 41.2856 238.968 38.6635 240.044 35.6604C241.119 32.6126 241.657 29.3406 241.657 25.8445C241.657 22.3036 241.119 18.9868 240.044 15.8941C238.968 12.8014 237.422 10.1121 235.405 7.82625C233.388 5.54035 230.9 3.74749 227.942 2.44766C225.028 1.14784 221.734 0.497925 218.059 0.497925C214.338 0.497925 211.022 1.14784 208.108 2.44766C205.195 3.74749 202.73 5.54035 200.713 7.82625C198.696 10.1121 197.149 12.8014 196.074 15.8941C194.998 18.9868 194.46 22.3036 194.46 25.8445C194.46 29.3406 194.998 32.6126 196.074 35.6604C197.149 38.6635 198.696 41.2856 200.713 43.5266C202.73 45.7677 205.195 47.5382 208.108 48.838ZM224.11 40.5684C222.451 41.4648 220.434 41.9131 218.059 41.9131C215.683 41.9131 213.666 41.4648 212.008 40.5684C210.349 39.6272 209.005 38.3946 207.974 36.8706C206.943 35.3467 206.181 33.6435 205.688 31.761C205.24 29.8336 205.016 27.8615 205.016 25.8445C205.016 23.7379 205.24 21.6985 205.688 19.7264C206.181 17.7542 206.943 16.0062 207.974 14.4823C209.005 12.9135 210.349 11.6809 212.008 10.7845C213.666 9.84322 215.683 9.37259 218.059 9.37259C220.434 9.37259 222.451 9.84322 224.11 10.7845C225.768 11.6809 227.113 12.9135 228.143 14.4823C229.174 16.0062 229.914 17.7542 230.362 19.7264C230.855 21.6985 231.102 23.7379 231.102 25.8445C231.102 27.8615 230.855 29.8336 230.362 31.761C229.914 33.6435 229.174 35.3467 228.143 36.8706C227.113 38.3946 225.768 39.6272 224.11 40.5684ZM245.578 1.64087L263.933 22.7518L243.83 49.6448H256.806L271.53 28.7355L274.824 31.8282V49.6448H284.976V31.8282L287.666 28.6683L302.927 49.6448H315.97L295.666 22.4829L314.222 1.64087H301.784L284.976 21.34V1.64087H274.824V21.4072L258.016 1.64087H245.578ZM330.664 1.64087H320.176V49.6448H332.009L350.296 16.2975H350.497V49.6448H360.986V1.64087H349.153L330.866 34.9209H330.664V1.64087ZM469.055 1.64087H458.23L443.225 41.3227C442.771 39.5257 442.324 37.8062 441.882 36.1621L436.278 37.6685C437.317 41.533 438.392 45.8383 439.503 50.6175L443.687 49.6448H450.7L454.465 38.9548H472.416L476.047 49.6448H487.006L469.055 1.64087ZM463.609 13.4738L469.66 31.0886H457.222L463.475 13.4738H463.609ZM512.794 1.64087H491.145V49.6448H501.701V32.4333H512.794C515.797 32.4333 518.352 32.0075 520.459 31.1559C522.565 30.2594 524.269 29.0941 525.568 27.6598C526.913 26.2255 527.877 24.5895 528.459 22.7518C529.087 20.9141 529.401 19.0092 529.401 17.0371C529.401 15.1098 529.087 13.2273 528.459 11.3896C527.877 9.50706 526.913 7.84866 525.568 6.41437C524.269 4.98008 522.565 3.83713 520.459 2.98552C518.352 2.08909 515.797 1.64087 512.794 1.64087ZM513.399 23.962C512.279 24.1413 511.113 24.2309 509.903 24.2309H501.701V9.84322H509.903C511.113 9.84322 512.279 9.93287 513.399 10.1122C514.52 10.2914 515.506 10.65 516.358 11.1879C517.209 11.6809 517.881 12.398 518.375 13.3393C518.912 14.2806 519.181 15.5131 519.181 17.0371C519.181 18.561 518.912 19.7936 518.375 20.7349C517.881 21.6761 517.209 22.4157 516.358 22.9535C515.506 23.4466 514.52 23.7827 513.399 23.962ZM546.544 1.64087H535.989V49.6448H596.7V1.64087H586.144V40.7701H571.622V1.64087H561.067V40.7701H546.544V1.64087ZM627.628 1.64087H605.979V49.6448H616.534V32.4333H627.628C630.631 32.4333 633.185 32.0075 635.292 31.1559C637.399 30.2594 639.102 29.0941 640.402 27.6598C641.746 26.2255 642.71 24.5895 643.293 22.7518C643.92 20.9141 644.234 19.0092 644.234 17.0371C644.234 15.1098 643.92 13.2273 643.293 11.3896C642.71 9.50706 641.746 7.84866 640.402 6.41437C639.102 4.98008 637.399 3.83713 635.292 2.98552C633.185 2.08909 630.631 1.64087 627.628 1.64087ZM628.233 23.962C627.112 24.1413 625.947 24.2309 624.737 24.2309H616.534V9.84322H624.737C625.947 9.84322 627.112 9.93287 628.233 10.1122C629.353 10.2914 630.339 10.65 631.191 11.1879C632.043 11.6809 632.715 12.398 633.208 13.3393C633.746 14.2806 634.015 15.5131 634.015 17.0371C634.015 18.561 633.746 19.7936 633.208 20.7349C632.715 21.6761 632.043 22.4157 631.191 22.9535C630.339 23.4466 629.353 23.7827 628.233 23.962ZM656.94 50.0482C657.882 50.3619 658.935 50.5188 660.1 50.5188C662.028 50.5188 663.753 50.2723 665.277 49.7792C666.846 49.2862 668.28 48.5018 669.58 47.4261C670.925 46.3056 672.135 44.8937 673.211 43.1905C674.331 41.4424 675.429 39.3358 676.505 36.8706L690.588 3.77982V10.5155H704.975V49.6448H715.531V10.5155H729.919V1.64087H691.498H690.588H680.472L670.723 26.6513L657.68 1.64087H645.847L665.076 37.6774C664.403 40.3219 662.476 41.6441 659.294 41.6441C658.263 41.6441 657.389 41.5545 656.671 41.3752C655.999 41.1511 655.416 40.9046 654.923 40.6356V49.1741C655.372 49.4431 656.044 49.7344 656.94 50.0482ZM417.652 32.5544C418.525 26.4856 419.632 20.9189 420.964 16.6777C421.631 14.5529 422.326 12.858 423.022 11.6292C423.754 10.337 424.307 9.88387 424.53 9.77031L421.892 4.60202C420.166 5.48309 418.912 7.11283 417.973 8.76887C416.999 10.4884 416.16 12.6072 415.428 14.9387C413.96 19.6101 412.8 25.5265 411.909 31.7287L417.652 32.5544ZM425.287 10.272C426.344 11.237 427.787 13.3415 429.515 17.2329C431.21 21.0508 433.066 26.325 435.08 33.3487L440.658 31.7495C438.605 24.5875 436.663 19.0335 434.818 14.8785C433.006 10.7972 431.169 7.78427 429.198 5.98542L425.287 10.272ZM389.829 34.3507C390.681 28.9131 391.751 23.9505 393.024 20.1957C393.662 18.3143 394.318 16.8369 394.963 15.7836C395.642 14.6771 396.126 14.3387 396.282 14.2682L393.888 8.98247C392.184 9.75416 390.94 11.2444 390.016 12.7513C389.06 14.3115 388.241 16.2323 387.529 18.3325C386.102 22.5406 384.971 27.8739 384.097 33.4526L389.829 34.3507ZM396.889 14.6686C397.833 15.4718 399.164 17.284 400.779 20.7427C402.36 24.1298 404.095 28.833 405.976 35.1245L411.536 33.4621C409.611 27.0246 407.783 22.0276 406.037 18.2882C404.325 14.6204 402.566 11.8799 400.65 10.2493L396.889 14.6686ZM415.826 50.1595C416.121 45.8685 416.535 41.3527 417.073 36.9345L411.312 36.2336C411.246 36.7806 411.181 37.3288 411.118 37.8777L407.098 39.0033C408.069 42.473 409.073 46.3421 410.111 50.6412L415.826 50.1595ZM388.024 50.1826C388.321 46.3218 388.732 42.2581 389.261 38.2856L383.509 37.52C382.964 41.6115 382.543 45.7832 382.239 49.7383L388.024 50.1826Z" fill="black"/>
</svg>
